SplineFontDB: 3.2
FontName: Takemitsu
FullName: Takemitsu
FamilyName: Takemitsu
Weight: Regular
Copyright: Copyright (c) 2024, Valerie Thibault
UComments: "2024-8-28: Created with FontForge (http://fontforge.org)"
Version: 001.000
ItalicAngle: 0
UnderlinePosition: -100
UnderlineWidth: 50
Ascent: 1000
Descent: 0
InvalidEm: 0
LayerCount: 2
Layer: 0 0 "Back" 1
Layer: 1 0 "Fore" 0
XUID: [1021 258 -616603033 7795472]
StyleMap: 0x0000
FSType: 0
OS2Version: 0
OS2_WeightWidthSlopeOnly: 0
OS2_UseTypoMetrics: 1
CreationTime: 1724837497
ModificationTime: 1725113833
OS2TypoAscent: 0
OS2TypoAOffset: 1
OS2TypoDescent: 0
OS2TypoDOffset: 1
OS2TypoLinegap: 90
OS2WinAscent: 0
OS2WinAOffset: 1
OS2WinDescent: 0
OS2WinDOffset: 1
HheadAscent: 0
HheadAOffset: 1
HheadDescent: 0
HheadDOffset: 1
Lookup: 258 0 0 "mfkern" { "mfkern-1" [150,15,4] "mfkern-2" [150,15,0] } []
MarkAttachClasses: 1
DEI: 91125
KernClass2: 1 1 "mfkern-2"
 0 {}
KernClass2: 1 1 "mfkern-1"
 0 {}
Encoding: UnicodeBmp
UnicodeInterp: none
NameList: AGL For New Fonts
DisplaySize: -48
AntiAlias: 1
FitToEm: 0
WinInfo: 58412 34 13
BeginPrivate: 0
EndPrivate
Grid
-1000 -498 m 4
 2000 -498 l 1028
  Named: "-2sp"
-1000 -258 m 0
 2000 -258 l 1024
  Named: "-1sp"
-1000 1000 m 0
 2000 1000 l 1024
  Named: "4sp"
-1000 750 m 0
 2000 750 l 1024
  Named: "3sp"
-1000 500 m 0
 2000 500 l 1024
  Named: "2sp"
-1000 250 m 0
 2000 250 l 1024
  Named: "1sp"
EndSplineSet
BeginChars: 65536 37

StartChar: gClef
Encoding: 57424 57424 0
Width: 616
Flags: W
HStem: -668.329 20.5127<199.948 312.418> -258.56 17.9873<274.468 401.996> 117.648 137.956<381.971 473.408>
VStem: 0.40918 91.498<-50.0163 140.99> 81.6631 191.607<-568.855 -445.348> 181.43 42.0117<-75.9646 47.6293> 283.33 26.4814<576.271 775.553> 432.508 26.7119<-540.976 -355.545> 523.197 35.6191<806.322 999.73> 545.186 70.4072<-110.075 45.936>
LayerCount: 2
Fore
SplineSet
385.486328125 255.604492188 m 0xf380
 508.66796875 255.604492188 615.592773438 144.595703125 615.592773438 -0.3955078125 c 0
 615.592773438 -63.7548828125 594.887695312 -120.724609375 568.630859375 -156.68359375 c 0
 537.150452526 -199.794137001 487.609952847 -229.075864775 431.082067142 -244.807185824 c 1
 440.822176517 -316.404702961 449.612871291 -380.932316618 456.551757812 -431.708007812 c 0
 458.282226562 -448.993164062 459.219726562 -464.2734375 459.219726562 -478.116210938 c 0
 459.219726562 -529.287109375 446.4140625 -560.815429688 422 -590.948242188 c 0
 376.57421875 -647.016601562 315.293945312 -668.329101562 257.122070312 -668.329101562 c 4
 123.9765625 -668.329101562 81.6630859375 -568.172851562 81.6630859375 -510.217773438 c 0
 81.6630859375 -437.26171875 140.266601562 -406.526367188 181.686523438 -406.526367188 c 0
 238.484375 -406.526367188 273.270507812 -453.567382812 273.270507812 -506.740234375 c 0xeb40
 273.270507812 -589.275390625 186.791015625 -616.428710938 175.002929688 -619.747070312 c 1
 186.899414062 -637.51171875 216.765625 -647.81640625 252.126953125 -647.81640625 c 0
 329.247070312 -647.81640625 432.5078125 -598.805664062 432.5078125 -471.301757812 c 0
 432.5078125 -467.581685866 427.293496074 -408.107936178 405.818186337 -250.850477297 c 1
 380.298289787 -255.997641323 353.751745865 -258.559570312 327.10546875 -258.559570312 c 0
 215.603515625 -258.559570312 102.357421875 -213.698242188 47.1005859375 -117.060546875 c 0
 21.361328125 -72.0458984375 0.4091796875 27.4765625 0.4091796875 79.67578125 c 0
 0.4091796875 273.951171875 169.842773438 416.6328125 261.759765625 515.110351562 c 0
 272.873664652 527.017351373 283.400003364 538.084422305 293.400064184 548.448177514 c 1
 284.569561539 635.012824491 283.330078211 681.865906702 283.330078125 722.966796875 c 0
 283.330078125 891.556640625 324.0234375 958.405273438 377.366210938 1046.03222656 c 1
 424.301757812 1105.42578125 439.869140625 1119.35058594 472.193359375 1130.85351562 c 1
 484.529296875 1121.56835938 558.81640625 1042.01855469 558.81640625 855.059570312 c 0
 558.81640625 701.046291058 526.722216374 617.962012151 341.293369448 416.363865585 c 1
 347.47979109 370.800048897 354.999516539 315.392940733 363.274082057 254.425933028 c 1
 370.559379851 255.207411229 377.969623466 255.604492188 385.486328125 255.604492188 c 0xf380
312.956366819 385.895326443 m 1
 305.016860011 377.44459296 296.828176147 368.793938787 288.3828125 359.931640625 c 0
 175.043945312 240.99609375 91.9072265625 170.254882812 91.9072265625 32.2578125 c 0
 91.9072265625 -99.4267578125 174.217773438 -240.572265625 338.403320312 -240.572265625 c 0
 347.013620821 -240.572265625 372.709666041 -239.81062557 403.193932435 -231.736081568 c 1
 391.802595125 -149.192971813 376.235269082 -41.7792638745 355.110351562 95.76171875 c 0
 354.119652334 102.211950441 353.142540189 108.59036497 352.178830175 114.897951212 c 1
 283.05656583 103.174777339 223.44140625 54.4496165532 223.44140625 -22.17578125 c 0
 223.44140625 -39.3447265625 226.901367188 -99.1826171875 272.763671875 -138.408203125 c 1
 271.78515625 -142.495117188 l 1
 206.661132812 -116.966796875 181.4296875 -45.7333984375 181.4296875 24.583984375 c 0xf7
 181.4296875 141.205211931 244.460810654 224.635660606 332.198776218 248.578322995 c 1
 324.700692142 300.067223832 318.343906486 345.53292421 312.956366819 385.895326443 c 1
428.204977084 -223.655743504 m 1
 484.362583212 -201.984817093 545.185546875 -152.719659874 545.185546875 -40.97265625 c 0xe340
 545.185546875 -2.9248046875 533.466796875 117.6484375 384.913085938 117.6484375 c 0
 383.889134509 117.6484375 382.865541801 117.640417217 381.842458961 117.624404106 c 1
 397.250800158 4.1182539158 413.655026178 -116.676723183 428.204977084 -223.655743504 c 1
319.422351366 575.080111768 m 1
 397.738397461 654.291823264 441.153438709 690.552538307 488.813476562 771.127929688 c 0
 519.374023438 822.796875 523.197265625 862.362304688 523.197265625 917.66796875 c 0xe380
 523.197265625 949.137695312 519.572265625 1003.55566406 496.633789062 1032.74707031 c 1
 472.719726562 1021.02832031 460.265625 1010.39257812 445.307617188 995.341796875 c 0
 354.193359375 903.659179688 309.811523438 773.544921875 309.811523438 680.583007812 c 0
 309.811523438 651.662560684 313.484424283 617.67863126 319.422351366 575.080111768 c 1
EndSplineSet
Validated: 1
EndChar

StartChar: fClef
Encoding: 57442 57442 1
Width: 681
Flags: W
HStem: -174 97<592.385 672.932> -100 193<54.0318 171.828> 69 98<592.385 672.932> 208 42<132.375 293.916>
VStem: -0 214<-45.3785 51.0479> 400 132<-184.709 66.9872> 584 97<-165.615 -85.0684 77.3848 158.615>
LayerCount: 2
Fore
SplineSet
118 -100 m 0x5e
 52 -100 0 -40 -0 26 c 0
 0 72 25 139 74 188 c 0
 116 230 167 250 240 250 c 0
 349 250 436 205 492 118 c 0
 521 74 532 34 532 -33 c 0
 532 -160 492 -271 420 -354 c 0
 370 -412 265 -501 139 -570 c 0
 96 -594 57 -611 7 -624 c 1
 6 -614 l 1
 53 -598 110 -565 171 -518 c 0
 327 -397 400 -264 400 -78 c 0
 400 4 385 64 356 117 c 0
 319 184 275 208 211 208 c 0
 163 208 132 193 100 165 c 0
 70 138 52 107 43 73 c 1
 55 81 75 93 109 93 c 3
 167 93 214 47 214 -13 c 0
 214 -38 206 -57 184 -75 c 0
 162 -93 140 -100 118 -100 c 0x5e
584 118 m 0
 584 145 606 167 633 167 c 0
 660 167 681 145 681 118 c 0
 681 91 660 69 633 69 c 0x3e
 606 69 584 91 584 118 c 0
584 -125 m 0
 584 -98 606 -77 633 -77 c 0
 660 -77 681 -98 681 -125 c 0
 681 -152 660 -174 633 -174 c 0x9e
 606 -174 584 -152 584 -125 c 0
EndSplineSet
Validated: 1
EndChar

StartChar: noteheadBlack
Encoding: 57508 57508 2
Width: 276
Flags: W
HStem: -127 257<91.6953 185.073>
VStem: 0 276<-40.2884 43.2884>
LayerCount: 2
Fore
SplineSet
108 -127 m 0
 44 -127 0 -85 0 -27 c 0
 0 53 83 130 169 130 c 0
 233 130 276 88 276 30 c 0
 276 -50 194 -127 108 -127 c 0
EndSplineSet
Validated: 1
EndChar

StartChar: noteheadHalf
Encoding: 57507 57507 3
Width: 273
Flags: W
HStem: -128 43<38.3533 126.368> 85 44<145.79 234.438>
VStem: 0 33<-80.7978 13> 240 33<-12.9065 79.2234>
LayerCount: 2
Fore
SplineSet
166 129 m 0
 226 129 273 90 273 29 c 0
 273 -52 191 -128 106 -128 c 0
 43 -128 0 -85 0 -27 c 0
 0 53 79 129 166 129 c 0
204 85 m 2
 199 85 l 2
 169 85 103 42 66 -5 c 0
 50 -25 33 -55 33 -62 c 0
 33 -68 44 -85 66 -85 c 0
 76 -85 150 -70 209 5 c 0
 235 38 240 59 240 65 c 0
 240 66 239 66 239 66 c 0
 239 68 229 85 207 85 c 0
 206 85 205 85 204 85 c 2
EndSplineSet
Validated: 1
EndChar

StartChar: flag8thUp
Encoding: 57920 57920 4
Width: 282
Flags: W
HStem: -20 20G<0 39>
VStem: 0 34<-46.779 0> 235 47<-595.172 -418.623>
LayerCount: 2
Fore
SplineSet
87 -776 m 1
 189 -690 235 -610.127468122 235 -512 c 3
 235 -444 199.892580101 -383.097183355 161 -340 c 0
 124 -299 58 -260 0 -244 c 1
 0 0 l 1
 34 0 l 1
 44 -35 64.8198345865 -83.1117353384 81 -109 c 0
 111 -157 167 -216 197 -252 c 0
 250 -315 282 -405 282 -480 c 3
 282 -547 258 -622 219 -674 c 0
 193 -709 145 -754 95 -786 c 1
 87 -776 l 1
EndSplineSet
Validated: 1
EndChar

StartChar: flag8thDown
Encoding: 57921 57921 5
Width: 282
Flags: W
VStem: 0 34<0 46.7461> 235 47<418.606 595.144>
LayerCount: 2
Fore
SplineSet
87 776 m 5
 189 690 235 610 235 512 c 7
 235 444 200 383 161 340 c 4
 124 299 58 260 0 244 c 5
 0 0 l 5
 34 0 l 5
 44 35 65 83 81 109 c 4
 111 157 167 216 197 252 c 4
 250 315 282 405 282 480 c 7
 282 547 258 622 219 674 c 4
 193 709 145 754 95 786 c 5
 87 776 l 5
EndSplineSet
Validated: 9
EndChar

StartChar: flag16thUp
Encoding: 57922 57922 6
Width: 304
Flags: W
HStem: -20 20G<0 48>
VStem: 0 34<-50.5511 0> 259 42<-759.946 -585.898> 269 35<-502.285 -391.737>
LayerCount: 2
Fore
SplineSet
163 -883 m 5xe0
 244 -794 259 -734 259 -685 c 4xe0
 259 -606 220 -536 179 -504 c 4
 146 -478 69 -442 0 -425 c 5
 0 0 l 5
 34 0 l 5
 62 -108 107 -153 179 -223 c 4
 209 -252 226 -268 234 -277 c 4
 281 -326 304 -381 304 -444 c 4xd0
 304 -477 298 -517 287 -550 c 5
 296 -578 301 -609 301 -648 c 4
 301 -745 270 -806 174 -893 c 5
 163 -883 l 5xe0
54 -237 m 5
 61 -313 96 -341 99 -344 c 4
 202 -430 240 -463 265 -503 c 5
 268 -491 269 -481 269 -469 c 4xd0
 269 -402 241 -356 172 -303 c 4
 133 -273 90 -248 54 -237 c 5
EndSplineSet
Validated: 1
EndChar

StartChar: flag16thDown
Encoding: 57923 57923 7
Width: 304
Flags: W
VStem: 0 34<0 50.5511> 259 42<585.898 759.946> 269 35<391.737 502.285>
LayerCount: 2
Fore
SplineSet
163 883 m 1xc0
 244 794 259 734 259 685 c 0xc0
 259 606 220 536 179 504 c 0
 146 478 69 442 0 425 c 1
 0 0 l 1
 34 0 l 1
 62 108 107 153 179 223 c 0
 209 252 226 268 234 277 c 0
 281 326 304 381 304 444 c 0xa0
 304 477 298 517 287 550 c 1
 296 578 301 609 301 648 c 0
 301 745 270 806 174 893 c 1
 163 883 l 1xc0
54 237 m 1
 61 313 96 341 99 344 c 0
 202 430 240 463 265 503 c 1
 268 491 269 481 269 469 c 0xa0
 269 402 241 356 172 303 c 0
 133 273 90 248 54 237 c 1
EndSplineSet
Validated: 9
EndChar

StartChar: flag32ndUp
Encoding: 57924 57924 8
Width: 304
Flags: W
HStem: -19 20G<0 45.2144>
VStem: 0 34<-48.4093 1> 259 42<-898.789 -724.301> 259 35<-444 -355.667> 269 35<-640.991 -530.231>
LayerCount: 2
Fore
SplineSet
163 -1022 m 1xe0
 229.827148438 -948.573242188 259 -888.403320312 259 -823.044921875 c 0xe0
 259 -753.870117188 226.321289062 -679.93359375 178.674804688 -642.59375 c 0
 143.044921875 -614.671875 63.9091796875 -579.74609375 0 -564 c 1
 0 1 l 1
 34 1 l 1
 56.4287109375 -85.5107421875 89.765625 -115.556640625 139.149414062 -160.067382812 c 0
 194.8515625 -210.270507812 294 -299.6328125 294 -405.03125 c 3xd0
 294 -426.486328125 294 -460 288 -492 c 1
 300 -524 304 -549.305664062 304 -584.571289062 c 0xc8
 304 -617.305664062 297.603515625 -657.189453125 287 -689 c 1
 296.521484375 -718.622070312 301 -749.97265625 301 -786.799804688 c 0
 301 -884.599609375 269.416015625 -945.529296875 174 -1032 c 1
 163 -1022 l 1xe0
54 -376 m 1
 58.365234375 -423.3984375 72.1318359375 -456.131835938 99 -483 c 1
 216.416015625 -581.037109375 242.532226562 -606.051757812 265 -642 c 1
 267.8359375 -630.65625 269 -620.76171875 269 -607.208007812 c 0xc8
 269 -541.955078125 242.020507812 -495.784179688 172.057617188 -442.015625 c 0
 130.709960938 -410.23828125 88.154296875 -386.435546875 54 -376 c 1
50 -190 m 1
 60.498046875 -263.484375 70.1640625 -281.680664062 127.729492188 -325.333007812 c 0
 179.31640625 -364.451171875 241.478515625 -420.397460938 258 -444 c 1
 258.793945312 -440.030273438 259 -436.733398438 259 -431.490234375 c 0xd0
 259 -366.021484375 226.876953125 -306.772460938 152.333007812 -248.745117188 c 0
 121.220703125 -224.526367188 85.4814453125 -202.90234375 50 -190 c 1
EndSplineSet
Validated: 1
EndChar

StartChar: flag32ndDown
Encoding: 57925 57925 9
Width: 304
Flags: W
VStem: 0 34<0 49.5422> 259 42<724.712 899.933> 259 35<356.696 444.376> 269 35<530.983 642.105>
LayerCount: 2
Fore
SplineSet
163 1023 m 1xc0
 230 950 259 889 259 824 c 0xc0
 259 755 227 681 179 644 c 0
 143 616 64 581 0 565 c 1
 0 0 l 1
 34 0 l 1
 56 87 90 116 139 161 c 0
 195 211 294 301 294 406 c 0xa0
 294 427 293 460 286 496 c 1
 301 531 304 551 304 586 c 0x90
 304 619 298 658 287 690 c 1
 297 720 301 751 301 788 c 0
 301 886 269 947 174 1033 c 1
 163 1023 l 1xc0
54 377 m 1
 58 424 72 457 99 484 c 1
 216 582 243 607 265 643 c 1
 268 632 269 622 269 608 c 0x90
 269 543 242 497 172 443 c 0
 131 411 88 387 54 377 c 1
50 191 m 1
 60 264 70 282 128 326 c 0
 180 365 241 421 258 445 c 1
 259 441 259 437 259 432 c 0xa0
 259 367 227 308 152 250 c 0
 121 226 85 204 50 191 c 1
EndSplineSet
Validated: 9
EndChar

StartChar: rest8th
Encoding: 58598 58598 10
Width: 232
Flags: W
HStem: 57.125 26.25<60.1641 149.227>
VStem: 0 118<89.6393 177.299> 67 41<-206.312 -187.306>
LayerCount: 2
Fore
SplineSet
173 81.5 m 5xa0
 137 63.6875 121 57.125 92 57.125 c 4
 29 57.125 0 86.1875 0 126.5 c 4
 0 163.0625 27 194 61 194 c 4
 91 194 118 170.5625 118 138.6875 c 4xc0
 118 117.125 107 91.8125 91 86.1875 c 5
 98 83.375 105 83.375 113 83.375 c 4
 129 83.375 173 90.875 199 153.6875 c 6
 212 184.625 l 5
 232 184.625 l 5
 108 -206.3125 l 5
 67 -206.3125 l 5
 173 81.5 l 5xa0
EndSplineSet
Validated: 1
EndChar

StartChar: rest16th
Encoding: 58599 58599 11
Width: 309
Flags: W
HStem: 57 26<90.1985 148.268> 301 25<167.222 226.664>
VStem: 0 118<89.436 174.188> 77 119<331.989 416.325>
LayerCount: 2
Fore
SplineSet
253 75 m 5xe0
 214 56 195 51 170 51 c 4
 110 51 77 76 77 116 c 4
 77 153 105 183 140 183 c 4
 171 183 196 159 196 129 c 4xd0
 196 107 183 84 167 78 c 5
 172 76 179 76 186 76 c 4
 213 76 252 88 278 144 c 6
 291 173 l 5
 309 173 l 5
 108 -458 l 5
 66 -458 l 5
 173 -169 l 5
 132 -189 117 -193 93 -193 c 4
 32 -193 0 -166 0 -126 c 4
 0 -89 28 -59 62 -59 c 4
 93 -59 118 -83 118 -114 c 4
 118 -136 106 -158 90 -164 c 5
 95 -166 101 -167 108 -167 c 4
 168 -167 192 -118 198 -98 c 6
 253 75 l 5xe0
EndSplineSet
Validated: 1
EndChar

StartChar: restQuarter
Encoding: 58597 58597 12
Width: 238
Flags: W
HStem: -156 52<37.5 155.118>
VStem: 0 76<-216.68 -149.375>
LayerCount: 2
Fore
SplineSet
122 203 m 1
 111 253 46 379 20 406 c 1
 29 415 l 1
 97 342 153 262 208 158 c 1
 194 82 141 5 135 -37 c 1
 144 -69 168 -103 237 -188 c 1
 228 -201 l 1
 203 -187 148 -156 111 -156 c 0
 93 -156 76 -164 76 -196 c 0
 76 -240 126 -282 145 -298 c 1
 122 -298 l 1
 73 -270 30 -234 13 -204 c 0
 5 -191 0 -173 0 -158 c 0
 0 -141 7 -104 68 -104 c 0
 89 -104 112 -109 127 -119 c 1
 130 -115 l 1
 60 -43 43 -23 24 7 c 1
 56 94 113 169 122 203 c 1
EndSplineSet
Validated: 1
EndChar

StartChar: rest32nd
Encoding: 58600 58600 13
Width: 388
Flags: W
HStem: -193 26<90.1985 148.268> 51 25<167.222 227.262> 301 25<246.222 305.664>
VStem: 0 118<-160.564 -75.8121> 77 119<81.989 166.325> 156 119<331.989 416.325>
LayerCount: 2
Fore
SplineSet
332 325 m 1xe8
 293 306 274 301 249 301 c 0
 189 301 156 326 156 366 c 0
 156 403 184 433 219 433 c 0
 250 433 275 409 275 379 c 0
 275 357 262 334 246 328 c 1
 251 326 258 326 265 326 c 0
 292 326 331 338 357 394 c 2
 370 423 l 1
 388 423 l 1
 108 -458 l 1
 66 -458 l 1
 173 -169 l 1
 132 -189 117 -193 93 -193 c 0
 32 -193 0 -166 0 -126 c 0
 0 -89 28 -59 62 -59 c 0
 93 -59 118 -83 118 -114 c 0xf4
 118 -136 106 -158 90 -164 c 1
 95 -166 101 -167 108 -167 c 0
 168 -167 192 -118 198 -98 c 2
 253 75 l 1
 214 56 195 51 170 51 c 0
 110 51 77 76 77 116 c 0
 77 153 105 183 140 183 c 0
 171 183 196 159 196 129 c 0
 196 107 183 84 167 78 c 1
 172 76 179 76 186 76 c 0
 213 76 257 88 273 138 c 2
 332 325 l 1xe8
EndSplineSet
Validated: 1
EndChar

StartChar: tuplet3
Encoding: 59523 59523 14
Width: 297
Flags: W
HStem: 163 26<97 156.033> 306 27<131.994 192.629>
VStem: 0 87<34.87 102.578> 77 84<229.62 291.766> 166 68<61.4425 157.312> 203 69<210.457 302.152>
LayerCount: 2
Fore
SplineSet
176 333 m 3xd4
 200 333 272 331 272 257 c 3xd4
 272 219 242 184 202 170 c 1
 221 161 234 143 234 112 c 3
 234 56 166 3 97 -1 c 0
 43.0812662299 -4.12572369682 0 18 0 59 c 3
 0 87 18.9814878278 110 46 110 c 3
 76 110 87 87.0380859375 87 74 c 3xe8
 87 53 77 36 56 30 c 1
 59 27 69 24 77 24 c 3
 138 24 166 89.939453125 166 123 c 3xd8
 166 157 142 163 97 163 c 1
 97 189 l 1
 98 189 142 190 162 190 c 1
 181 207 203 233 203 264 c 3
 203 287.021728866 188 306 165 306 c 3
 151.96159519 306 138 303 131 295 c 1
 149 292 161 276 161 259 c 0
 161 242 140 224 119 224 c 0
 94 224 77 241 77 265 c 0
 77 307 130 333 176 333 c 3xd4
EndSplineSet
Validated: 33
EndChar

StartChar: tuplet4
Encoding: 59524 59524 15
Width: 292
Flags: W
HStem: 0.0849609 30.8896<180.028 222.258> 0.0849609 14.7637<44.5049 66.3152> 71.0186 27.458<56.3203 104.869 193.725 249.65>
VStem: -0.301758 267.073
LayerCount: 2
Fore
SplineSet
-0.3017578125 100.764648438 m 1x70
 79.0361328125 170.947265625 123.615234375 216.545898438 223.401367188 329.58203125 c 1
 266.771484375 329.58203125 l 1
 266.055664062 327.278320312 211.3984375 166.315429688 193.724609375 99.62109375 c 1
 249.650390625 98.4765625 l 1
 249.650390625 71.0185546875 l 1
 188.133789062 71.0185546875 l 1
 183.133789062 53.7177734375 181.877929688 47.5126953125 180.028320312 30.974609375 c 1
 222.2578125 30.974609375 l 1
 222.2578125 0.0849609375 l 1xb0
 44.208984375 0.0849609375 l 1
 44.5048828125 14.8486328125 l 1
 53.31640625 16.9775390625 72.357421875 24.056640625 90.474609375 31.939453125 c 1
 97.3369140625 46.8095703125 103.366210938 63.2568359375 105.030273438 71.646484375 c 1
 101.715820312 72.169921875 90.4765735938 69.5774977746 81.1742880868 69.5774977746 c 0
 56.4734154362 69.5774977746 20.2412109375 71.0185546875 20.2412109375 71.0185546875 c 1
 -0.3017578125 100.764648438 l 1x70
113.0546875 98.9072265625 m 1
 139.831054688 155.577148438 155.526367188 190.430664062 161.224609375 205.877929688 c 1
 148.555664062 206.268554688 l 1
 127.04296875 183.807617188 127.04296875 183.807617188 50.517578125 108.048828125 c 1
 56.3203125 98.9072265625 l 1
 113.0546875 98.9072265625 l 1
EndSplineSet
Validated: 1
EndChar

StartChar: tupletColon
Encoding: 59530 59530 16
Width: 122
Flags: W
HStem: 67.2129 63.8271<1.38285 61.8573> 196.486 63.8281<36.1505 96.625>
VStem: -0.293945 63.8281<68.8897 129.363> 34.4736 63.8281<198.163 258.638>
LayerCount: 2
Fore
SplineSet
-0.2939453125 99.1259765625 m 0xe0
 -0.2939453125 116.751953125 13.994140625 131.040039062 31.6201171875 131.040039062 c 0
 49.2451171875 131.040039062 63.5341796875 116.751953125 63.5341796875 99.1259765625 c 0
 63.5341796875 81.5009765625 49.2451171875 67.212890625 31.6201171875 67.212890625 c 0
 13.994140625 67.212890625 -0.2939453125 81.5009765625 -0.2939453125 99.1259765625 c 0xe0
34.4736328125 228.400390625 m 0xd0
 34.4736328125 246.025390625 48.7626953125 260.314453125 66.3876953125 260.314453125 c 0
 84.013671875 260.314453125 98.3017578125 246.025390625 98.3017578125 228.400390625 c 0
 98.3017578125 210.774414062 84.013671875 196.486328125 66.3876953125 196.486328125 c 0
 48.7626953125 196.486328125 34.4736328125 210.774414062 34.4736328125 228.400390625 c 0xd0
EndSplineSet
Validated: 1
EndChar

StartChar: tuplet5
Encoding: 59525 59525 17
Width: 298
Flags: W
HStem: -1.40234 25.835<56.6641 115.059> 175.222 33.0527<85.5358 147.928> 251.09 62.4033<111.938 250.056>
VStem: 0.419922 86.459<34.8665 101.667> 157.756 80.3281<62.44 169.934>
LayerCount: 2
Fore
SplineSet
77.3748641342 24.4326794639 m 0
 120.527209129 24.4326794639 157.755859375 72.7060546875 157.755859375 127.521484375 c 0
 157.755859375 157.604492188 141.250976562 175.221679688 113.06640625 175.221679688 c 0
 98.1875 175.221679688 78.892578125 171.403320312 71.0185546875 166.900390625 c 1
 67.7783203125 161.182617188 61.42578125 151.490234375 55.68359375 143.5 c 1
 34.6767578125 157.493164062 l 1
 72.2568359375 230.069335938 78.4033203125 244.80078125 106.291992188 329.12890625 c 1
 126.88671875 319.969726562 159.23046875 313.493164062 184.375976562 313.493164062 c 0
 212.569335938 313.493164062 251.487304688 319.065429688 278.33203125 326.9453125 c 1
 267.9765625 272.607421875 236.623046875 251.08984375 167.803710938 251.08984375 c 0
 153.512695312 251.08984375 131.9921875 256.575195312 115.848632812 264.333007812 c 1
 110.7421875 249.069335938 93.8115234375 212.17578125 84.998046875 197.107421875 c 1
 103.493164062 204.978515625 120.19140625 208.274414062 141.58203125 208.274414062 c 0
 201.994140625 208.274414062 238.083984375 177.506835938 238.083984375 126.004882812 c 0
 238.083984375 60.3974609375 170.234375 -1.40234375 98.2041015625 -1.40234375 c 0
 36.3447265625 -1.40234375 0.419921875 20.796875 0.419921875 59.0244140625 c 0
 0.419921875 85.47265625 20.9599609375 109.259765625 43.7978515625 109.259765625 c 0
 69.919921875 109.259765625 86.87890625 95.0869140625 86.87890625 73.2578125 c 0
 86.87890625 53.3310546875 74.0439453125 35.1357421875 56.296875 29.9033203125 c 1
 60.5859375 27.2353515625 67.4144151558 24.4326794639 77.3748641342 24.4326794639 c 0
EndSplineSet
Validated: 1
EndChar

StartChar: timeSig4
Encoding: 57476 57476 18
Width: 407
Flags: W
HStem: 0 17<98 125.333> 112 36<40 182 292 372>
VStem: 185 107<39 112 148 260.988>
LayerCount: 2
Fore
SplineSet
182 112 m 1
 21 112 l 1
 -0 137 l 1
 53 215 96 291 124 362 c 0
 145 413 157 459 158 500 c 1
 185 498 215 496 229 496 c 3
 243 496 270 497 294 500 c 1
 288 456 261 409 204 336 c 0
 154 272 77 184 40 147 c 1
 185 148 l 1
 185 259 l 1
 212 301 263 370 292 403 c 1
 292 148 l 1
 372 148 l 1
 372 112 l 1
 292 112 l 1
 292 39 l 1
 354 18 l 1
 354 0 l 1
 98 0 l 1
 98 17 l 1
 180 38 l 1
 182 112 l 1
EndSplineSet
Validated: 1
EndChar

StartChar: timeSig7
Encoding: 57479 57479 19
Width: 443
Flags: W
HStem: 0 21G<57 272> 326.787 107.213<203.083 316.34> 357.727 142.273<106.506 181.102>
VStem: 0 56<449.431 497> 0 47<241 343.907>
LayerCount: 2
Fore
SplineSet
408 466 m 1xd0
 325 347 257 178 257 88 c 0
 257 60 263 23 272 0 c 1
 65 0 l 1
 57 13 l 1
 94 42 161 143 267 330 c 1
 258 328 248.571289062 326.787109375 237.830078125 326.787109375 c 0xd0
 168.3359375 326.787109375 157.795898438 357.7265625 111.796875 357.7265625 c 0
 97.234375 357.7265625 82 354 68 345 c 1
 64 322 56 279 47 241 c 1
 0 241 l 1xa8
 3 267 6 350 6 388 c 0
 6 402 5 458 0 497 c 1
 56 497 l 1
 61 479 64 458 65 449 c 1
 71 453 79.3076171875 458.033203125 86.0517578125 463.190429688 c 0
 108.44140625 480.311523438 133 500 165 500 c 0xb0
 224 500 253 434 294 434 c 0
 319 434 347 457 376 493 c 1
 408 466 l 1xd0
EndSplineSet
Validated: 1
EndChar

StartChar: timeSig8
Encoding: 57480 57480 20
Width: 403
Flags: W
HStem: -1 36<123.256 245.377> 469 33<127.496 232.86>
VStem: 0 76<75.9912 197.473> 13 82<350.615 433.829> 265 78<335.865 444.371> 276 82<69.4389 163.872>
LayerCount: 2
Fore
SplineSet
180 502 m 0xd0
 283 502 343 460 343 388 c 3xd8
 343 344 326 312 285 277 c 1
 345 235 358 213 358 146 c 0
 358 57 287 -1 180 -1 c 0
 74 -1 0 57 0 139 c 0xe4
 0 198 19 235 71 271 c 1
 27 304 13 327 13 362 c 3
 13 444 82 502 180 502 c 0xd0
173 469 m 0
 131 469 95 433 95 390 c 0
 95 369 114 346 140 336 c 0
 165 326 189 319 221 310 c 1
 247 333 265 368 265 396 c 0
 265 439 226 469 173 469 c 0
223 192 m 0
 195 211 163 219 136 232 c 1
 99 212 76 173 76 131 c 0
 76 83 124 35 180 35 c 0
 241 35 276 65 276 110 c 0xe4
 276 139 256 170 223 192 c 0
EndSplineSet
Validated: 1
EndChar

StartChar: cClef
Encoding: 57436 57436 21
Width: 601
Flags: W
HStem: -508 27<333.449 416.475> -441 146<310.145 366.667> -93 50<366.699 451.321> 42 50<366.584 451.321> 294 147<310.229 365.307> 480 28<331.229 416.475>
VStem: 0 129<-499 501> 159 140<-63.8045 63.6773> 159 36<-499 -65 64 501> 237 148<-423.495 -316.931 317.625 420.547> 497 105<-381.657 -154.539 151.585 380.826>
LayerCount: 2
Fore
SplineSet
0 -499 m 5xfe20
 0 501 l 5
 129 501 l 5
 129 -499 l 5
 0 -499 l 5xfe20
237 378 m 4xfe60
 237 452 306 508 392 508 c 4
 452 508 511 480 544 443 c 4
 583 400 602 329 602 260 c 4
 602 129 532 42 428 42 c 4
 371 42 337 79 329 89 c 5
 306 60 299 34 299 0 c 7xff20
 299 -27 306 -60 329 -89 c 5
 339 -76 370 -43 428 -43 c 4
 532 -43 602 -129 602 -260 c 4
 602 -329 583 -401 544 -444 c 4
 511 -481 452 -508 392 -508 c 4
 306 -508 237 -452 237 -378 c 4
 237 -329 267 -295 311 -295 c 4
 328 -295 385 -300 385 -370 c 4xfe60
 385 -415 350 -441 326 -441 c 4
 322 -441 313 -440 310 -438 c 5
 323 -467 345 -481 372 -481 c 4
 443 -481 497 -389 497 -272 c 4
 497 -176 461 -93 410 -93 c 4
 379 -93 349 -123 299 -209 c 5xff20
 282 -208 l 5
 272 -168 265 -143 249 -116 c 4
 236 -93 212 -75 195 -65 c 5
 195 -499 l 5
 159 -499 l 5
 159 501 l 5
 195 501 l 5
 195 64 l 5xfea0
 212 74 231 92 249 115 c 4
 267 138 272 168 282 208 c 5
 299 209 l 5xff20
 349 123 379 92 410 92 c 4
 461 92 497 175 497 271 c 4
 497 388 443 480 372 480 c 4
 345 480 323 467 310 438 c 5
 313 440 319 441 323 441 c 4
 347 441 385 415 385 370 c 4
 385 352 380 294 317 294 c 4
 268 294 237 329 237 378 c 4xfe60
EndSplineSet
Validated: 1
EndChar

StartChar: tuplet6
Encoding: 59526 59526 22
Width: 284
Flags: W
HStem: -2 35<80.5872 127.232> 155 37<103.328 146.086> 288 34<151.132 192.915>
VStem: 0 79<44.8488 139.266> 147 80<47.165 154.279> 173 91<218.684 287.854>
LayerCount: 2
Fore
SplineSet
0 120 m 0xf8
 0 217 96 322 191 322 c 4
 232 322 264 295 264 262 c 4
 264 232 245 212 219 212 c 0
 193 212 173 231 173 254 c 0xf4
 173 275 187 285 194 288 c 1
 172 288 129 281 103 186 c 1
 114 191 127 192 140 192 c 0
 196 192 227 157 227 111 c 0
 227 48 169 -2 111 -2 c 0
 96 -2 0 10 0 120 c 0xf8
125 155 m 0
 108 155 97.8679900417 143.037965146 87 105 c 0
 83 91 79 77 79 63 c 0
 79 48 83 33 101 33 c 0
 118 33 126 41 137 75 c 0
 143 93 147 121 147 136 c 0xf8
 147 149 140 155 125 155 c 0
EndSplineSet
Validated: 1
EndChar

StartChar: tuplet7
Encoding: 59527 59527 23
Width: 289
Flags: W
HStem: 0.0166016 21G<44.4019 69.5645> 269.551 54.5433<54.3632 185.232>
VStem: 13.5039 85.4521<4.6725 93.2152>
LayerCount: 2
Fore
SplineSet
13.50390625 40.2646484375 m 0
 13.50390625 104.619152685 183.684027441 261.72898072 185.921875 263.4453125 c 1
 171.247181262 268.342095595 153.629064971 269.551060588 137.249433334 269.551060588 c 0
 62.0109147696 269.551060588 55.9050911477 261.590848464 33.0778955648 231.830847148 c 0
 27.3367546438 224.34607484 22 218 15.759765625 210.82421875 c 1
 0.162109375 221.416992188 l 1
 23.3880963808 266.496305938 31.9268477349 284.795647915 51.4619140625 331.825195312 c 1
 113.87717544 326.151914228 142.330355922 324.094353271 256.957077976 324.094353271 c 0
 257.961238892 324.094353271 258.498046875 324.094726562 258.498046875 324.094726562 c 1
 269.146484375 300.25390625 l 1
 269.146484375 300.25390625 211.364257812 244.740234375 185.34765625 218.088867188 c 0
 157.663085938 189.728515625 120.901367188 134.915039062 113.30859375 106.466796875 c 0
 106.413820865 80.6366856078 101.826350723 40.429457098 98.9560546875 27.9931640625 c 0
 96.13671875 15.7734375 82.966796875 0.0166015625 56.162109375 0.0166015625 c 0
 32.6416015625 0.0166015625 13.50390625 14.9189453125 13.50390625 40.2646484375 c 0
EndSplineSet
Validated: 1
EndChar

StartChar: tuplet8
Encoding: 59528 59528 24
Width: 255
Flags: W
HStem: -2.40039 30.5127<66.2996 147.399> 314.601 31.0615<84.5552 157.854>
VStem: -0.144531 49.6738<39.2207 138.007> 17.3418 53.4443<228.888 305.817> 167.674 67.832<51.2971 133.05 223.678 308.026>
LayerCount: 2
Fore
SplineSet
128.998046875 345.662109375 m 0xd8
 174.795898438 345.662109375 228.84375 317.624023438 228.84375 268.22265625 c 3
 228.84375 226.588867188 204.697265625 214.930664062 182.21484375 196.611328125 c 1
 203.864257812 187.530273438 235.505859375 162.471679688 235.505859375 114.17578125 c 0
 235.505859375 56.44140625 183.879882812 -2.400390625 100.611328125 -2.400390625 c 0
 56.4794921875 -2.400390625 -0.14453125 17.7509765625 -0.14453125 73.541015625 c 0xe8
 -0.14453125 134.618164062 46.02734375 164.3203125 64.2177734375 172.297851562 c 1
 42.802734375 184.625 17.341796875 207.790039062 17.341796875 245.740234375 c 0
 17.341796875 317.98046875 77.5166015625 345.662109375 128.998046875 345.662109375 c 0xd8
120.072265625 314.600585938 m 0
 94.25390625 314.600585938 70.7861328125 297.061523438 70.7861328125 260.893554688 c 0xd8
 70.7861328125 222.669921875 124.975585938 217.693359375 141.486328125 215.935546875 c 1
 150.266601562 221.555664062 173.454101562 240.288085938 173.454101562 267.3359375 c 3
 173.454101562 294.38378908 145.890625 314.600585938 120.072265625 314.600585938 c 0
167.673828125 87.80078125 m 0
 167.673828125 136.197265625 120.708984375 148.422851562 94.509765625 152.62109375 c 1
 70.7685546875 141.208007812 49.529296875 126.818359375 49.529296875 81.701171875 c 0xe8
 49.529296875 51.0693359375 72.517578125 28.1123046875 107.436523438 28.1123046875 c 0
 142.356445312 28.1123046875 167.673828125 56.86328125 167.673828125 87.80078125 c 0
EndSplineSet
Validated: 1
EndChar

StartChar: timeSig3
Encoding: 57475 57475 25
Width: 342
Flags: W
HStem: -2 33<74.2058 175.629> 241 30<99 170.474> 461 40<74.9317 178.485>
VStem: 0 115<65.9136 153.56 343.584 434.02> 206 96<61.1016 209.006> 206 87<297.632 435.068>
LayerCount: 2
Fore
SplineSet
302 137 m 0xf8
 302 57 243 -2 145 -2 c 0
 56 -2 0 35 0 99 c 0
 0 140 25 167 58 167 c 0
 91 167 115 143 115 111 c 4
 115 82 94 57 70 54 c 1
 75 39 94 31 122 31 c 0
 176 31 206 63 206 128 c 0xf8
 206 189 179 236 138 241 c 2
 99 241 l 1
 99 271 l 1
 138 271 l 2
 176 271 206 311 206 366 c 0
 206 422 176 461 129 461 c 0
 112 461 87 457 74 443 c 5
 100 440 118 414 118 388 c 0
 118 356 94 329 60 329 c 0
 26 329 0 356 0 394 c 0
 0 455 69 501 147 501 c 0
 235 501 293 444 293 369 c 0xf4
 293 325 273 287 232 257 c 1
 274 240 302 196 302 137 c 0xf8
EndSplineSet
Validated: 1
EndChar

StartChar: accidentalFlat
Encoding: 57952 57952 26
Width: 206
Flags: W
HStem: 96.2159 56.7841<67.8312 161.5>
VStem: -1 29<-120 79.1956 101 459> 131 75<9.91708 111.5>
LayerCount: 2
Fore
SplineSet
28 459 m 1
 28 101 l 1
 64 135 103 153 145 153 c 0
 178 153 206 127 206 96 c 0
 206 28 173 -27 93 -93 c 0
 63 -118 24 -144 -1 -157 c 1
 -1 459 l 1
 28 459 l 1
131 48 m 0
 131 63 120.884245573 96.2158553118 86.7804362433 96.2158553118 c 0
 67.7503686214 96.2158553118 52 90 24 64 c 1
 24 -120 l 1
 80 -85 131 -4 131 48 c 0
EndSplineSet
Validated: 1
EndChar

StartChar: accidentalNatural
Encoding: 57953 57953 27
Width: 159
Flags: W
VStem: 0 30<-100 71.1995 169 375> 126 33<-388 -192 -78.236 95>
LayerCount: 2
Fore
SplineSet
0 375 m 5
 30 375 l 5
 30 169 l 5
 91 201 159 216 159 216 c 5
 159 -388 l 5
 126 -388 l 5
 126 -192 l 5
 73 -215 0 -230 0 -230 c 5
 0 375 l 5
129 95 m 5
 94 97 54 81 29 60 c 5
 29 -100 l 5
 61 -101 108 -85 129 -65 c 5
 129 95 l 5
EndSplineSet
Validated: 33
EndChar

StartChar: accidentalSharp
Encoding: 57954 57954 28
Width: 246
Flags: W
VStem: 58 26<-370 -190 -94 60 154 314> 159 27<-308 -156 -61 90 189 376>
LayerCount: 2
Fore
SplineSet
159 376 m 1
 186 376 l 1
 186 189 l 1
 241 207 l 1
 244 195 246 182 246 168 c 0
 246 154 244 139 241 122 c 1
 186 103 l 1
 186 -61 l 1
 241 -43 l 1
 244 -55 246 -68 246 -82 c 0
 246 -96 244 -112 241 -128 c 1
 186 -147 l 1
 186 -308 l 1
 159 -308 l 1
 159 -156 l 1
 84 -181 l 1
 84 -370 l 1
 58 -370 l 1
 58 -190 l 1
 5 -208 l 1
 2 -195 0 -182 0 -168 c 0
 0 -154 2 -139 5 -123 c 1
 58 -105 l 1
 58 60 l 1
 5 42 l 1
 1 48 0 66 0 87 c 0
 0 107 1 123 5 127 c 1
 58 145 l 1
 58 314 l 1
 84 314 l 1
 84 154 l 1
 159 180 l 1
 159 376 l 1
159 90 m 1
 132 90 99 79 84 65 c 1
 84 -94 l 1
 110 -91 146 -77 159 -64 c 1
 159 90 l 1
EndSplineSet
Validated: 1
EndChar

StartChar: brace
Encoding: 57344 57344 29
Width: 85
Flags: W
HStem: -0 21G<83 85>
VStem: 23 24<86.1865 206.968 793.032 913.814> 59 23<306.762 405.58 594.42 693.238>
LayerCount: 2
Fore
SplineSet
83 1000 m 1
 85 998 l 1
 85 998 68 973 63 959 c 0
 59 948 47 922 47 888 c 0
 47 854 59 790 65 762 c 0
 71 734 82 688 82 665 c 0
 82 642 78 609 65 579 c 0
 51 546 24 525 7 500 c 1
 24 475 51 454 65 421 c 0
 78 391 82 358 82 335 c 0
 82 312 71 266 65 238 c 0
 59 210 47 146 47 112 c 0
 47 78 59 52 63 41 c 0
 68 27 85 2 85 2 c 1
 83 -0 l 1
 83 0 62 27 46 58 c 0
 32 86 23 127 23 153 c 0
 23 179 35 254 40 275 c 0
 45 296 59 348 59 377 c 0
 59 406 53 425 42 442 c 0
 32 457 9 484 0 500 c 1
 9 516 32 543 42 558 c 0
 53 575 59 594 59 623 c 0
 59 652 45 704 40 725 c 0
 35 746 23 821 23 847 c 0
 23 873 32 914 46 942 c 0
 62 973 83 1000 83 1000 c 1
EndSplineSet
Validated: 1
EndChar

StartChar: dynamicPiano
Encoding: 58656 58656 30
Width: 426
Flags: W
HStem: -123 15<0 52 161 218> -7.54199 43.9541<205.828 277.614> 235.945 57.0547<116.392 193.5> 251.395 50.6055<260.381 324.796>
VStem: 72.2568 17.7432<157 199.306> 329.207 66.793<112.075 249.296>
LayerCount: 2
Fore
SplineSet
72.2568359375 185.973632812 m 4xec
 72.2568359375 259.583984375 138 293 181 293 c 4xec
 206 293 225 281 240 258 c 5
 259 292 289 302 313 302 c 4xdc
 362 302 395 251 396 177 c 4
 396 125 381 75 332 21 c 4
 332 21 306.302734375 -7.5419921875 258.916992188 -7.5419921875 c 4
 226.7734375 -7.5419921875 195 11 187 18 c 5
 175.074462612 -20.9599348739 164.649874976 -60.398896271 161 -102 c 5
 218 -108 l 5
 218 -123 l 5
 0 -123 l 5
 0 -108 l 5
 52 -102 l 5
 98 4 130 101 163 217 c 5
 156 230 147.362304688 235.9453125 138.0859375 235.9453125 c 4
 119.661132812 235.9453125 91 208 90 157 c 5
 78 156 l 5
 74 165 72.2568359375 175.319335938 72.2568359375 185.973632812 c 4xec
329.20703125 206.611328125 m 4
 329.20703125 217.1171875 326.9921875 251.39453125 296.400390625 251.39453125 c 4xdc
 279.030273438 251.39453125 269 242 261 236 c 5
 203 66 l 5
 208 48 218.879882812 36.412109375 240.666015625 36.412109375 c 4
 290.76171875 36.412109375 329.20703125 154.713867188 329.20703125 206.611328125 c 4
EndSplineSet
Validated: 524289
EndChar

StartChar: dynamicMezzo
Encoding: 58657 58657 31
Width: 465
Flags: W
HStem: -4 25<326.934 374.218> 286 39<172.701 230.553 301.761 369.513> 296 35<55.3872 103.856>
VStem: 0 28<207 261.812> 296 45<21.0558 106.485> 371 49<187.56 285.84>
LayerCount: 2
Fore
SplineSet
140 16 m 0xdc
 140 51 231 217 231 262 c 0
 231 276 226 286 212 286 c 0xdc
 188 286 166 267 153 235 c 2
 74 44 l 2
 59 7 48 -4 29 -4 c 0
 15 -4 7 6 7 22 c 0
 7 34 11 49 19 67 c 2
 92 227 l 2
 100 244 104 263 104 277 c 0
 104 289 101 296 92 296 c 0
 75 296 63 289 45 267 c 0
 33 252 28 234 28 205 c 1
 0 207 l 1
 0 211 0 214 0 218 c 0
 0 280 47 331 100 331 c 0xbc
 127 331 144 321 162 298 c 1
 166 301 170 303 173 306 c 0
 187 317 199 325 229 325 c 0xdc
 258 325 272 318 286 296 c 1xbc
 309 318 327 324 367 324 c 0
 404 324 420 304 420 257 c 0
 420 191 341 88 341 48 c 0
 341 32 349 21 360 21 c 0
 372 21 397 43 427 79 c 1
 435 72 l 1
 406 28 367 -4 341 -4 c 0
 310 -4 296 11 296 46 c 0
 296 123 371 190 371 258 c 0
 371 276 363 286 350 286 c 0
 316 286 298 271 283 234 c 2
 203 36 l 2
 193 11 178 -4 161 -4 c 0
 149 -4 140 1 140 16 c 0xdc
EndSplineSet
Validated: 1
EndChar

StartChar: dynamicForte
Encoding: 58658 58658 32
Width: 460
Flags: W
HStem: -194 139<-125.342 -51.4647> 252 41<73 129 254 344> 357 124<325.232 412.326>
VStem: -150 113<-141.641 -67.8395> 316.01 113.99<368.373 418.682>
LayerCount: 2
Fore
SplineSet
360 481 m 0
 399 481 430 453 430 417 c 0
 430 381 407 357 373 357 c 0
 350 357 316.009765625 371.264648438 316.009765625 405.189453125 c 3
 316.009765625 409.1015625 318 416 319 420 c 1
 294 413 278 383 254 293 c 1
 344 293 l 1
 344 252 l 1
 243 252 l 1
 231 202 187 74 161 16 c 0
 102 -116 19 -194 -63 -194 c 0
 -114 -194 -150 -162 -150 -115 c 0
 -150 -82 -125 -55 -94 -55 c 0
 -61 -55 -37 -76 -37 -104 c 0
 -37 -120 -41 -131 -50 -143 c 1
 -19 -139 1 -107 33 -10 c 0
 67 93 93 165 129 252 c 1
 73 252 l 1
 73 293 l 1
 149 293 l 1
 180 353 199.041015625 380.987304688 236 420 c 0
 272 458 321 481 360 481 c 0
EndSplineSet
Validated: 524289
EndChar

StartChar: dynamicMF
Encoding: 58669 58669 33
Width: 904
Flags: W
HStem: -292 48.9658<245.306 298.975> -0 22<322.3 371.432> 243 41<522 578 707 798> 295 30.6699<183.819 240.5 317.4 372.288> 300 35<55.3693 102.929> 429 32<787.035 832>
VStem: -0.168757 28.1688<211 266.168> 147 114<-241.517 -147.54> 295.745 43.2549<22.1366 120.75> 376 38.2021<211.884 293.938> 811 93<339.913 420.883>
LayerCount: 2
Fore
SplineSet
824 461 m 0xe7e0
 863 461 904 424 904 388 c 0
 904 352 880 328 846 328 c 0
 830 328 811 350 811 368 c 0
 811 398 820 416 839 425 c 1
 832 429 l 1
 785 428 758 398 707 284 c 1
 798 284 l 1
 798 243 l 1
 696 243 l 1
 659 184 597 34 560 -26 c 0
 443 -215 356 -292 258 -292 c 0
 205 -292 147 -243 147 -198 c 0
 147 -163 174 -132 203 -132 c 0
 236 -132 261 -154 261 -182 c 0
 261 -202 253 -232 245 -242 c 1
 247 -243 250.033203125 -243.034179688 252.818359375 -243.034179688 c 0
 297.703125 -243.034179688 384 -146 450 -11 c 0
 501 93 537 166 578 243 c 1
 522 243 l 1
 522 284 l 1
 600 284 l 1
 633 341 671 391 704 421 c 0
 735 449 770 461 824 461 c 0xe7e0
284 293 m 1
 301 309 323.263671875 325.669921875 363.780273438 325.669921875 c 0
 389.647460938 325.669921875 414.202148438 303.431640625 414.202148438 272.821289062 c 0
 414.202148438 240.900390625 399.997385817 211.219412234 389.763331369 188.991193904 c 0
 388.196935408 185.589004518 339 79 339 52 c 0
 339 35 346 22 355 22 c 0
 367 22 399 48 427 83 c 1
 435 76 l 1
 406 32 367 0 341 -0 c 0
 302 0 295.74512806 28.0504407307 295.74512806 44.4448267719 c 0
 295.74512806 106.27480012 376 234 376 263 c 0
 376 282 365 295 350 295 c 0xf7e0
 330 295 299 269 283 238 c 1
 194 37 l 2
 178 2 176 0 161 -0 c 0
 149 0 140.202988854 5.77671855526 140.202988854 20.4664798626 c 0
 140.202988854 59.6092371853 231.736132185 209.905954272 231.736132185 262.333209754 c 0
 231.736132185 277.686120288 226 290 212 290 c 0
 189 290 167 271 153 239 c 2
 74 48 l 2
 59 11 48 0 29 -0 c 0
 15 0 7.54071017244 9.67262826143 7.54071017244 25.7931383586 c 0
 7.54071017244 37.8890766566 11 53 19 71 c 2
 92 231 l 1
 98 248 103.358627332 268.141994498 103.358627332 282.169898539 c 0
 103.358627332 293.015995782 100 300 92 300 c 0
 75 300 63 293 45 271 c 0
 33 256 28 238 28 209 c 1
 0 211 l 1
 0 215 -0.168756749199 218.260674689 -0.168756749199 222.209478964 c 0
 -0.168756749199 284.633354889 47 335 100 335 c 0xefe0
 127 335 144 325 162 302 c 1
 166 305 169.923434546 307.440421493 173.300511747 309.94334028 c 0
 187.668910336 320.592470466 203 329 229 329 c 0
 252 329 270 318 284 293 c 1
EndSplineSet
Validated: 524289
EndChar

StartChar: dynamicPP
Encoding: 58667 58667 34
Width: 737
Flags: W
HStem: -123.647 15<-0.1875 51.8125 160.812 217.812 341.812 393.812 502.812 559.812> -8.18945 43.9541<205.641 277.426 547.641 619.426> 235.298 57.0547<116.205 193.312 458.205 535.312> 250.747 50.6055<260.194 324.609 602.194 666.609>
VStem: 72.0693 17.7432<156.353 198.66> 329.02 66.793<111.427 248.649> 414.069 17.7432<156.353 198.66> 671.02 66.793<111.427 248.649>
LayerCount: 2
Fore
SplineSet
72.0693359375 185.327148438 m 5xef
 72.0693359375 258.9375 137.8125 292.352539062 180.8125 292.352539062 c 4xef
 205.8125 292.352539062 224.8125 280.352539062 239.8125 257.352539062 c 5
 258.8125 291.352539062 288.8125 301.352539062 312.8125 301.352539062 c 4xdf
 361.8125 301.352539062 394.8125 250.352539062 395.8125 176.352539062 c 4
 395.8125 124.352539062 380.8125 74.3525390625 331.8125 20.3525390625 c 5
 331.8125 20.3525390625 306.115234375 -8.189453125 258.729492188 -8.189453125 c 4
 226.5859375 -8.189453125 194.8125 10.3525390625 186.8125 17.3525390625 c 5
 174.88671875 -21.607421875 164.461914062 -61.0458984375 160.8125 -102.647460938 c 5
 217.8125 -108.647460938 l 5
 217.8125 -123.647460938 l 5
 -0.1875 -123.647460938 l 5
 -0.1875 -108.647460938 l 5
 51.8125 -102.647460938 l 5
 97.8125 3.3525390625 129.8125 100.352539062 162.8125 216.352539062 c 5
 155.8125 229.352539062 147.174804688 235.297851562 137.8984375 235.297851562 c 4
 119.473632812 235.297851562 90.8125 207.352539062 89.8125 156.352539062 c 5
 77.8125 155.352539062 l 5
 73.8125 164.352539062 72.0693359375 174.671875 72.0693359375 185.326171875 c 6
 72.0693359375 185.327148438 l 5xef
329.01953125 205.963867188 m 6
 329.01953125 216.469726562 326.8046875 250.747070312 296.212890625 250.747070312 c 4xdf
 278.842773438 250.747070312 268.8125 241.352539062 260.8125 235.352539062 c 5
 202.8125 65.3525390625 l 5
 207.8125 47.3525390625 218.692382812 35.7646484375 240.478515625 35.7646484375 c 4
 290.57421875 35.7646484375 329.01953125 154.06640625 329.01953125 205.963867188 c 6
414.069335938 185.327148438 m 5
 414.069335938 258.9375 479.8125 292.352539062 522.8125 292.352539062 c 4xef
 547.8125 292.352539062 566.8125 280.352539062 581.8125 257.352539062 c 5
 600.8125 291.352539062 630.8125 301.352539062 654.8125 301.352539062 c 4xdf
 703.8125 301.352539062 736.8125 250.352539062 737.8125 176.352539062 c 4
 737.8125 124.352539062 722.8125 74.3525390625 673.8125 20.3525390625 c 5
 673.8125 20.3525390625 648.115234375 -8.189453125 600.729492188 -8.189453125 c 4
 568.5859375 -8.189453125 536.8125 10.3525390625 528.8125 17.3525390625 c 5
 516.88671875 -21.607421875 506.461914062 -61.0458984375 502.8125 -102.647460938 c 5
 559.8125 -108.647460938 l 5
 559.8125 -123.647460938 l 5
 341.8125 -123.647460938 l 5
 341.8125 -108.647460938 l 5
 393.8125 -102.647460938 l 5
 439.8125 3.3525390625 471.8125 100.352539062 504.8125 216.352539062 c 5
 497.8125 229.352539062 489.174804688 235.297851562 479.8984375 235.297851562 c 4xef
 461.473632812 235.297851562 432.8125 207.352539062 431.8125 156.352539062 c 5
 419.8125 155.352539062 l 5
 415.8125 164.352539062 414.069335938 174.671875 414.069335938 185.326171875 c 6
 414.069335938 185.327148438 l 5
671.01953125 205.963867188 m 6
 671.01953125 216.469726562 668.8046875 250.747070312 638.212890625 250.747070312 c 4xdf
 620.842773438 250.747070312 610.8125 241.352539062 602.8125 235.352539062 c 5
 544.8125 65.3525390625 l 5
 549.8125 47.3525390625 560.692382812 35.7646484375 582.478515625 35.7646484375 c 4
 632.57421875 35.7646484375 671.01953125 154.06640625 671.01953125 205.963867188 c 6
EndSplineSet
Validated: 524293
EndChar

StartChar: dynamicFF
Encoding: 58671 58671 35
Width: 866
Flags: W
HStem: -194 139<24.6582 98.5353 310.658 384.535> 252 41<223 279 404 565 690 780> 357 124<475.232 562.326 761.232 848.326>
VStem: 0 113<-141.641 -67.8395> 286 113<-141.641 -67.8395> 466.01 113.99<368.373 418.682> 752.01 113.99<368.373 418.682>
LayerCount: 2
Fore
SplineSet
510 481 m 0
 549 481 580 453 580 417 c 0
 580 381 557 357 523 357 c 0
 500 357 466.009765625 371.264648438 466.009765625 405.189453125 c 0
 466.009765625 409.1015625 468 416 469 420 c 1
 444 413 428 383 404 293 c 1
 585 293 l 1
 616 353 635.041015625 380.987304688 672 420 c 0
 708 458 757 481 796 481 c 0
 835 481 866 453 866 417 c 0
 866 381 843 357 809 357 c 0
 786 357 752.009765625 371.264648438 752.009765625 405.189453125 c 0
 752.009765625 409.1015625 754 416 755 420 c 1
 730 413 714 383 690 293 c 1
 780 293 l 1
 780 252 l 1
 679 252 l 1
 667 202 623 74 597 16 c 0
 538 -116 455 -194 373 -194 c 0
 322 -194 286 -162 286 -115 c 0
 286 -82 311 -55 342 -55 c 0
 375 -55 399 -76 399 -104 c 0
 399 -120 395 -131 386 -143 c 1
 417 -139 437 -107 469 -10 c 0
 503 93 529 165 565 252 c 1
 393 252 l 1
 381 202 337 74 311 16 c 0
 252 -116 169 -194 87 -194 c 0
 36 -194 0 -162 0 -115 c 0
 0 -82 25 -55 56 -55 c 0
 89 -55 113 -76 113 -104 c 0
 113 -120 109 -131 100 -143 c 1
 131 -139 151 -107 183 -10 c 0
 217 93 243 165 279 252 c 1
 223 252 l 1
 223 293 l 1
 299 293 l 1
 330 353 349.041015625 380.987304688 386 420 c 0
 422 458 471 481 510 481 c 0
EndSplineSet
Validated: 524289
EndChar

StartChar: dynamicPPP
Encoding: 58666 58666 36
Width: 1082
Flags: W
HStem: -123.647 15<-0.1875 51.8125 160.812 217.812 334.812 386.812 495.812 552.812 667.812 719.812 828.812 885.812> -8.18945 43.9541<205.641 277.426 540.641 612.426 873.641 945.426> 235.298 57.0547<116.205 193.312 451.205 528.312 784.205 861.312> 250.747 50.6055<260.194 324.609 595.194 659.609 928.194 992.609>
VStem: 72.0693 17.7432<156.353 198.66> 329.02 66.793<111.427 248.649> 407.069 17.7432<156.353 198.66> 664.02 66.793<111.427 248.649> 740.069 17.7432<156.353 198.66> 997.02 66.793<111.427 248.649>
LayerCount: 2
Fore
SplineSet
740.069335938 185.327148438 m 1xefc0
 740.069335938 258.9375 805.8125 292.352539062 848.8125 292.352539062 c 0xefc0
 873.8125 292.352539062 892.8125 280.352539062 907.8125 257.352539062 c 1
 926.8125 291.352539062 956.8125 301.352539062 980.8125 301.352539062 c 0xdfc0
 1029.8125 301.352539062 1062.8125 250.352539062 1063.8125 176.352539062 c 0
 1063.8125 124.352539062 1048.8125 74.3525390625 999.8125 20.3525390625 c 1
 999.8125 20.3525390625 974.115234375 -8.189453125 926.729492188 -8.189453125 c 0
 894.5859375 -8.189453125 862.8125 10.3525390625 854.8125 17.3525390625 c 1
 842.88671875 -21.607421875 832.461914062 -61.0458984375 828.8125 -102.647460938 c 1
 885.8125 -108.647460938 l 1
 885.8125 -123.647460938 l 1
 667.8125 -123.647460938 l 1
 667.8125 -108.647460938 l 1
 719.8125 -102.647460938 l 1
 765.8125 3.3525390625 797.8125 100.352539062 830.8125 216.352539062 c 1
 823.8125 229.352539062 815.174804688 235.297851562 805.8984375 235.297851562 c 0
 787.473632812 235.297851562 758.8125 207.352539062 757.8125 156.352539062 c 1
 745.8125 155.352539062 l 1
 741.8125 164.352539062 740.069335938 174.671875 740.069335938 185.326171875 c 2
 740.069335938 185.327148438 l 1xefc0
997.01953125 205.963867188 m 2
 997.01953125 216.469726562 994.8046875 250.747070312 964.212890625 250.747070312 c 0xdfc0
 946.842773438 250.747070312 936.8125 241.352539062 928.8125 235.352539062 c 1
 870.8125 65.3525390625 l 1
 875.8125 47.3525390625 886.692382812 35.7646484375 908.478515625 35.7646484375 c 0
 958.57421875 35.7646484375 997.01953125 154.06640625 997.01953125 205.963867188 c 2
72.0693359375 185.327148438 m 1
 72.0693359375 258.9375 137.8125 292.352539062 180.8125 292.352539062 c 0xefc0
 205.8125 292.352539062 224.8125 280.352539062 239.8125 257.352539062 c 1
 258.8125 291.352539062 288.8125 301.352539062 312.8125 301.352539062 c 0xdfc0
 361.8125 301.352539062 394.8125 250.352539062 395.8125 176.352539062 c 0
 395.8125 124.352539062 380.8125 74.3525390625 331.8125 20.3525390625 c 1
 331.8125 20.3525390625 306.115234375 -8.189453125 258.729492188 -8.189453125 c 0
 226.5859375 -8.189453125 194.8125 10.3525390625 186.8125 17.3525390625 c 1
 174.88671875 -21.607421875 164.461914062 -61.0458984375 160.8125 -102.647460938 c 1
 217.8125 -108.647460938 l 1
 217.8125 -123.647460938 l 1
 -0.1875 -123.647460938 l 1
 -0.1875 -108.647460938 l 1
 51.8125 -102.647460938 l 1
 97.8125 3.3525390625 129.8125 100.352539062 162.8125 216.352539062 c 1
 155.8125 229.352539062 147.174804688 235.297851562 137.8984375 235.297851562 c 0xefc0
 119.473632812 235.297851562 90.8125 207.352539062 89.8125 156.352539062 c 1
 77.8125 155.352539062 l 1
 73.8125 164.352539062 72.0693359375 174.671875 72.0693359375 185.326171875 c 2
 72.0693359375 185.327148438 l 1
329.01953125 205.963867188 m 2
 329.01953125 216.469726562 326.8046875 250.747070312 296.212890625 250.747070312 c 0xdfc0
 278.842773438 250.747070312 268.8125 241.352539062 260.8125 235.352539062 c 1
 202.8125 65.3525390625 l 1
 207.8125 47.3525390625 218.692382812 35.7646484375 240.478515625 35.7646484375 c 0
 290.57421875 35.7646484375 329.01953125 154.06640625 329.01953125 205.963867188 c 2
407.069335938 185.327148438 m 1
 407.069335938 258.9375 472.8125 292.352539062 515.8125 292.352539062 c 0xefc0
 540.8125 292.352539062 559.8125 280.352539062 574.8125 257.352539062 c 1
 593.8125 291.352539062 623.8125 301.352539062 647.8125 301.352539062 c 0xdfc0
 696.8125 301.352539062 729.8125 250.352539062 730.8125 176.352539062 c 0
 730.8125 124.352539062 715.8125 74.3525390625 666.8125 20.3525390625 c 1
 666.8125 20.3525390625 641.115234375 -8.189453125 593.729492188 -8.189453125 c 0
 561.5859375 -8.189453125 529.8125 10.3525390625 521.8125 17.3525390625 c 1
 509.88671875 -21.607421875 499.461914062 -61.0458984375 495.8125 -102.647460938 c 1
 552.8125 -108.647460938 l 1
 552.8125 -123.647460938 l 1
 334.8125 -123.647460938 l 1
 334.8125 -108.647460938 l 1
 386.8125 -102.647460938 l 1
 432.8125 3.3525390625 464.8125 100.352539062 497.8125 216.352539062 c 1
 490.8125 229.352539062 482.174804688 235.297851562 472.8984375 235.297851562 c 0xefc0
 454.473632812 235.297851562 425.8125 207.352539062 424.8125 156.352539062 c 1
 412.8125 155.352539062 l 1
 408.8125 164.352539062 407.069335938 174.671875 407.069335938 185.326171875 c 2
 407.069335938 185.327148438 l 1
664.01953125 205.963867188 m 2
 664.01953125 216.469726562 661.8046875 250.747070312 631.212890625 250.747070312 c 0xdfc0
 613.842773438 250.747070312 603.8125 241.352539062 595.8125 235.352539062 c 1
 537.8125 65.3525390625 l 1
 542.8125 47.3525390625 553.692382812 35.7646484375 575.478515625 35.7646484375 c 0
 625.57421875 35.7646484375 664.01953125 154.06640625 664.01953125 205.963867188 c 2
EndSplineSet
Validated: 524293
EndChar
